<svg id="Layer_1" data-name="Layer 1" xmlns="http://www.w3.org/2000/svg" viewBox="0 0 606.29 422"><defs><style>.cls-1,.cls-2{fill:#d1d1d1;}.cls-2{font-size:100px;font-family:Impact;}</style></defs><title>VP_logo</title><path class="cls-1" d="M293,177l6,56s64,63,64,68V503l165,96L404,488l1-198Z" transform="translate(-248.71 -177)"/><polygon class="cls-1" points="562.29 0 556.29 60 490.29 129 490.29 332 324.29 422 450.29 313 452.29 112 562.29 0"/><polygon class="cls-1" points="302.29 21 443.29 115 443.29 296 402.29 271 405.29 143 302.29 77 205.29 141 205.29 272 162.29 296 162.29 115 302.29 21"/><path class="cls-1" d="M551,261l-91,62V444l91,62,94-64V325Zm57,157.6L551.6,457,497,419.8V347.2L551.6,310,608,348.4Z" transform="translate(-248.71 -177)"/><path class="cls-1" d="M249,292s17.58,36.91,38.73,35.76a40,40,0,0,1,15.38,1.93c14.4,5,38.65,19.19,46.89,58.31,0,0-29.86-13.19-53.12-15.28-18.42-1.65-34.65-13.09-41.46-30.28C250.73,330.6,247.74,314.31,249,292Z" transform="translate(-248.71 -177)"/><path class="cls-1" d="M249,372s17.58,36.91,38.73,35.76a40,40,0,0,1,15.38,1.93c14.4,5,38.65,19.19,46.89,58.31,0,0-29.86-13.19-53.12-15.28-18.42-1.65-34.65-13.09-41.46-30.28C250.73,410.6,247.74,394.31,249,372Z" transform="translate(-248.71 -177)"/><path class="cls-1" d="M854.71,291S837.13,327.91,816,326.76a40.09,40.09,0,0,0-15.39,1.93c-14.4,5-38.65,19.19-46.89,58.31,0,0,29.86-13.19,53.13-15.28,18.41-1.65,34.64-13.09,41.45-30.28C853,329.6,856,313.31,854.71,291Z" transform="translate(-248.71 -177)"/><path class="cls-1" d="M854.71,371S837.13,407.91,816,406.76a40.09,40.09,0,0,0-15.39,1.93c-14.4,5-38.65,19.19-46.89,58.31,0,0,29.86-13.19,53.13-15.28,18.41-1.65,34.64-13.09,41.45-30.28C853,409.6,856,393.31,854.71,371Z" transform="translate(-248.71 -177)"/><text class="cls-2" transform="translate(281.82 241.8)">P</text></svg>